<?xml version="1.0" encoding="UTF-8"?>
<svg width="980px" height="128px" viewBox="0 0 980 128" version="1.1" xmlns="http://www.w3.org/2000/svg" xmlns:xlink="http://www.w3.org/1999/xlink">
    <!-- Generator: Sketch 52.5 (67469) - http://www.bohemiancoding.com/sketch -->
    <title>design</title>
    <desc>Created with Sketch.</desc>
    <g id="design" stroke="none" stroke-width="1" fill="none" fill-rule="evenodd">
        <path d="M422.568,41.4 L422.568,53.88 C421.032,52.296 419.064,51.48 416.808,51.48 C410.52,51.48 406.632,57.144 406.632,65.016 C406.632,73.224 409.656,78.648 415.992,78.648 C419.352,78.648 421.656,77.016 423.048,75.048 L423.432,77.832 L430.152,77.832 L430.152,42.216 L422.568,41.4 Z M418.824,57.048 C420.408,57.048 421.512,57.816 422.568,59.16 L422.568,70.152 C421.464,71.976 420.12,73.08 418.392,73.08 C416.088,73.08 414.456,71.352 414.456,65.064 C414.456,59.352 416.184,57.048 418.824,57.048 Z" id="Fill-5" fill="#000000"></path>
        <path d="M443.448,67.32 L459.96,67.32 C460.056,66.552 460.104,65.448 460.104,64.584 C460.104,56.376 455.448,51.48 448.152,51.48 C440.136,51.48 435.72,57.576 435.72,65.112 C435.72,73.032 440.232,78.648 448.968,78.648 C453.288,78.648 456.744,77.208 459.144,75.144 L456.12,71.016 C454.104,72.312 451.896,73.128 449.592,73.128 C446.328,73.128 443.976,71.496 443.448,67.32 Z M448.152,56.568 C451.368,56.568 452.664,59.016 452.712,62.712 L443.352,62.712 C443.688,58.488 445.464,56.568 448.152,56.568 Z" id="Fill-6" fill="#000000"></path>
        <path d="M475.896,73.224 C472.92,73.224 470.376,72.072 468.408,70.536 L464.616,74.808 C467.208,77.112 471,78.648 475.944,78.648 C482.424,78.648 487.992,75.816 487.992,70.2 C487.992,65.208 484.776,63.528 479.832,62.136 C474.84,60.744 473.832,60.168 473.832,58.872 C473.832,57.528 474.984,56.904 477.48,56.904 C479.928,56.904 482.424,57.768 484.536,59.064 L487.56,54.6 C485.064,52.776 481.8,51.48 477.24,51.48 C470.088,51.48 466.2,54.84 466.2,59.4 C466.2,63.912 469.416,65.928 474.072,67.176 C479.16,68.568 480.12,69.192 480.12,70.824 C480.12,72.456 478.44,73.224 475.896,73.224 Z" id="Fill-7" fill="#000000"></path>
        <path d="M505.464,39 C502.824,39 500.952,40.872 500.952,43.272 C500.952,45.72 502.824,47.544 505.464,47.544 C508.104,47.544 509.928,45.72 509.928,43.272 C509.928,40.872 508.104,39 505.464,39 Z M510.024,52.344 L495.48,52.344 L495.48,57.528 L502.44,57.528 L502.44,72.648 L495.24,72.648 L495.24,77.832 L516.552,77.832 L516.552,72.648 L510.024,72.648 L510.024,52.344 Z" id="Fill-8" fill="#000000"></path>
        <path d="M545.928,48.264 C542.856,50.088 539.592,51.672 533.928,51.528 C527.256,51.528 522.552,55.08 522.552,60.84 C522.552,64.152 523.848,66.408 527.064,68.136 C525.24,69.288 524.232,71.112 524.232,72.984 C524.232,75.672 526.536,78.024 532.104,78.024 L536.136,78.024 C538.68,78.024 539.832,79.08 539.832,80.568 C539.832,82.248 538.728,83.496 533.928,83.496 C529.08,83.496 528.12,82.488 528.12,80.28 L521.4,80.28 C521.4,85.32 523.944,88.488 533.736,88.488 C542.76,88.488 547.368,85.272 547.368,80.04 C547.368,75.768 543.576,72.648 537.672,72.648 L533.448,72.648 C531,72.648 530.664,71.88 530.664,71.112 C530.664,70.536 530.952,69.96 531.48,69.672 C532.392,69.864 533.352,69.96 534.456,69.96 C541.032,69.96 545.256,66.36 545.256,61.416 C545.256,58.104 543.528,56.232 540.312,54.84 C543.528,54.84 545.88,54.552 547.656,53.832 L545.928,48.264 Z M534.12,56.472 C536.664,56.472 538.008,57.816 538.008,60.648 C538.008,63.576 536.616,65.112 534.12,65.112 C531.768,65.112 530.232,63.528 530.232,60.744 C530.232,58.104 531.72,56.472 534.12,56.472 Z" id="Fill-9" fill="#000000"></path>
        <path d="M552.072,77.832 L559.656,77.832 L559.656,60.024 C561.096,58.2 562.488,57.096 564.12,57.096 C565.992,57.096 566.568,58.152 566.568,61.32 L566.568,77.832 L574.152,77.832 L574.152,59.112 C574.152,54.264 571.512,51.48 567.144,51.48 C563.88,51.48 561.48,52.728 559.224,55.272 L558.696,52.344 L552.072,52.344 L552.072,77.832 Z" id="Fill-10" fill="#000000"></path>
    </g>
</svg>