<?xml version="1.0" encoding="UTF-8"?>
<svg width="980px" height="128px" viewBox="0 0 980 128" version="1.1" xmlns="http://www.w3.org/2000/svg" xmlns:xlink="http://www.w3.org/1999/xlink">
    <!-- Generator: Sketch 42 (36781) - http://www.bohemiancoding.com/sketch -->
    <title>design</title>
    <desc>Created with Sketch.</desc>
    <defs></defs>
    <g id="design" stroke="none" stroke-width="1" fill="none" fill-rule="evenodd">
        <g fill="#212121">
            <path d="M402.76,77.664 C405.384,77.664 407.816,76.512 409.736,74.976 C409.608,69.536 409.544,63.2 409.544,54.432 C407.752,53.856 406.024,53.536 404.36,53.536 C398.6,53.536 394.12,57.824 394.12,65.76 C394.12,73.76 397.704,77.664 402.76,77.664 Z M410.312,81.312 L409.992,78.048 C407.752,80.16 404.616,81.952 400.776,81.952 C393.992,81.952 389,76.384 389,67.104 C389,55.648 397.192,49.12 406.728,49.12 C407.688,49.12 408.648,49.184 409.544,49.312 L409.544,36.448 L414.728,36 L414.728,49.952 C414.728,64.032 414.856,73.952 415.176,81.056 L410.312,81.312 Z M449.8,81.888 C430.152,81.824 424.84,76.128 424.84,65.952 C424.84,56.416 431.496,49.056 439.624,49.056 C448.2,49.056 452.552,55.968 451.4,66.336 L429.96,66.848 C430.472,74.272 435.144,77.088 450.312,77.472 L449.8,81.888 Z M438.728,53.344 C433.544,53.344 430.344,56.928 429.96,63.648 C433.544,63.52 442.12,63.264 446.536,63.136 C446.472,57.12 443.976,53.344 438.728,53.344 Z M483.784,49.568 C467.784,48.352 462.408,53.472 462.408,58.464 C462.408,66.336 479.944,67.232 479.944,72.8 C479.944,75.616 476.04,77.92 462.344,76.832 L462.152,81.44 C479.752,82.4 485.32,77.472 485.32,72.352 C485.32,64.352 467.656,62.944 467.656,57.76 C467.656,55.2 471.112,53.024 483.976,54.176 L483.784,49.568 Z M512.264,44.768 L512.84,36.064 L507.336,36.064 L506.952,44.768 L512.264,44.768 Z M523.912,81.184 L524.296,77.216 L512.52,77.216 L512.52,49.824 L496.008,49.824 L495.624,53.472 L507.336,53.984 L507.336,77.216 L495.56,77.216 L495.56,81.184 L523.912,81.184 Z M534.28,92.256 L533.768,87.52 C548.616,86.368 550.6,84.576 550.728,75.68 C548.488,77.408 545.48,78.752 541.768,78.752 C534.984,78.752 529.928,73.76 529.928,65.504 C529.928,55.392 537.672,49.12 546.632,49.12 C549.704,49.12 552.648,49.632 555.784,50.592 C555.848,53.088 555.848,70.24 555.848,73.888 C555.848,84.704 551.56,91.36 534.28,92.256 Z M543.688,74.592 C546.184,74.592 548.68,73.696 550.728,72.416 C550.728,68.128 550.664,59.36 550.728,54.496 C548.68,53.92 546.76,53.536 544.776,53.536 C539.272,53.536 535.048,57.312 535.048,64.288 C535.048,71.2 538.76,74.592 543.688,74.592 Z M580.04,53.536 C584.008,53.536 586.376,55.648 586.376,61.664 L586.376,81.184 L591.56,81.184 L591.56,59.936 C591.56,52.256 587.848,49.12 582.216,49.12 C577.736,49.12 574.344,51.104 571.72,53.28 L571.4,49.696 L566.6,50.016 C566.92,57.248 567.048,67.488 567.048,81.184 L572.232,81.184 C572.232,70.24 572.104,61.984 571.976,56.288 C574.408,54.624 577.032,53.536 580.04,53.536 Z"></path>
        </g>
    </g>
</svg>