<?xml version="1.0" encoding="UTF-8"?>
<svg width="980px" height="128px" viewBox="0 0 980 128" version="1.1" xmlns="http://www.w3.org/2000/svg" xmlns:xlink="http://www.w3.org/1999/xlink">
    <!-- Generator: Sketch 42 (36781) - http://www.bohemiancoding.com/sketch -->
    <title>gitignore.templates</title>
    <desc>Created with Sketch.</desc>
    <defs></defs>
    <g id="Gitignore" stroke="none" stroke-width="1" fill="none" fill-rule="evenodd">
        <g id="gitignore.templates">
            <path d="M174.352,91.192 L173.84,86.456 C188.688,85.304 190.672,83.512 190.8,74.616 C188.56,76.344 185.552,77.688 181.84,77.688 C175.056,77.688 170,72.696 170,64.44 C170,54.328 177.744,48.056 186.704,48.056 C189.776,48.056 192.72,48.568 195.856,49.528 C195.92,52.024 195.92,69.176 195.92,72.824 C195.92,83.64 191.632,90.296 174.352,91.192 Z M183.76,73.528 C186.256,73.528 188.752,72.632 190.8,71.352 C190.8,67.064 190.736,58.296 190.8,53.432 C188.752,52.856 186.832,52.472 184.848,52.472 C179.344,52.472 175.12,56.248 175.12,63.224 C175.12,70.136 178.832,73.528 183.76,73.528 Z M222.736,43.704 L223.312,35 L217.808,35 L217.424,43.704 L222.736,43.704 Z M234.384,80.12 L234.768,76.152 L222.992,76.152 L222.992,48.76 L206.48,48.76 L206.096,52.408 L217.808,52.92 L217.808,76.152 L206.032,76.152 L206.032,80.12 L234.384,80.12 Z M266.128,80.632 L266.704,76.28 C256.208,76.088 253.2,74.68 253.2,69.24 L253.2,52.792 L266,52.792 L266,48.76 L253.2,48.76 L253.2,39.608 L248.016,40.056 L248.016,48.76 L242.064,48.76 L241.552,52.792 L248.016,52.792 L248.016,70.072 C248.016,77.816 252.56,80.824 266.128,80.632 Z M293.136,43.704 L293.712,35 L288.208,35 L287.824,43.704 L293.136,43.704 Z M304.784,80.12 L305.168,76.152 L293.392,76.152 L293.392,48.76 L276.88,48.76 L276.496,52.408 L288.208,52.92 L288.208,76.152 L276.432,76.152 L276.432,80.12 L304.784,80.12 Z M315.152,91.192 L314.64,86.456 C329.488,85.304 331.472,83.512 331.6,74.616 C329.36,76.344 326.352,77.688 322.64,77.688 C315.856,77.688 310.8,72.696 310.8,64.44 C310.8,54.328 318.544,48.056 327.504,48.056 C330.576,48.056 333.52,48.568 336.656,49.528 C336.72,52.024 336.72,69.176 336.72,72.824 C336.72,83.64 332.432,90.296 315.152,91.192 Z M324.56,73.528 C327.056,73.528 329.552,72.632 331.6,71.352 C331.6,67.064 331.536,58.296 331.6,53.432 C329.552,52.856 327.632,52.472 325.648,52.472 C320.144,52.472 315.92,56.248 315.92,63.224 C315.92,70.136 319.632,73.528 324.56,73.528 Z M360.912,52.472 C364.88,52.472 367.248,54.584 367.248,60.6 L367.248,80.12 L372.432,80.12 L372.432,58.872 C372.432,51.192 368.72,48.056 363.088,48.056 C358.608,48.056 355.216,50.04 352.592,52.216 L352.272,48.632 L347.472,48.952 C347.792,56.184 347.92,66.424 347.92,80.12 L353.104,80.12 C353.104,69.176 352.976,60.92 352.848,55.224 C355.28,53.56 357.904,52.472 360.912,52.472 Z M394.384,81.016 C386.64,81.016 381.008,75.128 381.008,65.016 C381.008,54.84 387.792,47.928 395.856,47.928 C403.664,47.928 409.168,53.816 409.168,63.864 C409.168,74.232 402.448,81.016 394.384,81.016 Z M395.216,76.728 C400.4,76.728 403.984,72.568 403.984,64.824 C403.984,56.696 400.336,52.152 394.96,52.152 C389.84,52.152 386.256,56.376 386.256,64.056 C386.256,72.248 389.904,76.728 395.216,76.728 Z M440.528,80.12 L440.976,76.152 L430.352,76.152 C430.288,68.856 430.16,62.712 430.096,57.272 C433.552,55.032 438.096,53.624 444.496,53.112 L444.24,47.608 C437.776,48.376 432.976,50.936 429.904,54.136 C429.84,52.664 429.584,49.4 429.52,48.76 L417.36,48.76 L416.976,52.472 L424.912,52.92 C425.104,59.192 425.168,66.552 425.296,76.152 L416.976,76.152 L416.976,80.12 L440.528,80.12 Z M477.072,80.824 C457.424,80.76 452.112,75.064 452.112,64.888 C452.112,55.352 458.768,47.992 466.896,47.992 C475.472,47.992 479.824,54.904 478.672,65.272 L457.232,65.784 C457.744,73.208 462.416,76.024 477.584,76.408 L477.072,80.824 Z M466,52.28 C460.816,52.28 457.616,55.864 457.232,62.584 C460.816,62.456 469.392,62.2 473.808,62.072 C473.744,56.056 471.248,52.28 466,52.28 Z" id="gitignore" fill="#FF5722"></path>
            <path d="M493.184,80.12 L493.44,74.616 L488.384,74.616 L488.128,80.12 L493.184,80.12 Z M527.792,78.2 C516.4,78.008 513.328,76.28 513.328,70.328 L513.328,51.704 L527.088,51.704 L527.088,49.4 L513.328,49.4 L513.328,40.312 L510.512,40.568 L510.512,49.4 L504.432,49.4 L504.048,51.704 L510.512,51.704 L510.512,70.776 C510.512,77.944 514.928,80.696 527.536,80.696 L527.792,78.2 Z M562.032,80.824 C543.6,80.312 538.352,75 538.352,65.08 C538.352,55.864 544.496,48.696 552.304,48.696 C560.432,48.696 564.784,55.48 563.632,64.888 L541.104,65.528 C541.36,73.976 546.032,77.752 562.416,78.264 L562.032,80.824 Z M551.792,51.128 C545.648,51.128 541.488,55.864 541.104,63.48 L561.072,62.904 C561.328,55.928 558.128,51.128 551.792,51.128 Z M581.488,51.192 C584.304,51.192 585.2,52.728 585.2,56.568 L585.2,80.12 L588.016,80.12 L588.016,55.416 C588.016,54.776 587.952,54.2 587.888,53.624 C589.68,52.024 591.792,51.192 593.456,51.192 C596.272,51.192 597.168,52.728 597.168,56.696 L597.168,80.12 L599.984,80.12 L599.984,55.48 C599.984,50.872 597.808,48.76 594.48,48.76 C591.856,48.76 589.232,50.296 587.44,51.96 C586.608,49.784 584.816,48.76 582.512,48.76 C579.888,48.76 577.264,50.36 575.472,52.344 L575.216,49.336 L572.656,49.528 C572.912,56.76 573.04,67.192 573.04,80.12 L575.856,80.12 C575.856,68.28 575.728,59.704 575.536,54.328 C577.52,52.28 579.824,51.192 581.488,51.192 Z M620.208,78.392 C626.8,78.392 632.24,73.272 632.24,64.248 C632.24,55.928 627.952,51.192 622.256,51.192 C618.928,51.192 615.728,52.6 613.232,54.584 C613.36,60.728 613.552,66.872 613.552,77.24 C615.856,78.008 618.16,78.392 620.208,78.392 Z M613.552,90.68 L610.736,90.936 L610.736,80.12 C610.736,66.552 610.608,56.504 610.352,49.528 L612.912,49.336 L613.168,52.6 C615.728,50.552 619.056,48.76 623.216,48.76 C629.936,48.76 634.992,54.52 634.992,63.544 C634.992,74.36 627.44,80.824 618.992,80.824 C617.264,80.824 615.344,80.632 613.552,80.184 L613.552,90.68 Z M668.656,80.12 L668.912,77.88 L658.224,77.88 L658.224,35.576 L645.808,35.576 L645.552,37.56 L655.408,38.008 L655.408,77.88 L644.784,77.88 L644.784,80.12 L668.656,80.12 Z M689.712,78.392 C693.744,78.392 697.84,76.408 700.592,73.976 C700.528,71.672 700.464,69.24 700.464,65.464 C687.088,64.056 681.968,67 681.968,72.312 C681.968,76.216 685.104,78.392 689.712,78.392 Z M701.104,80.248 C700.976,79.096 700.848,77.368 700.784,76.024 C698.16,78.392 694.064,80.888 688.752,80.888 C683.12,80.888 679.152,77.88 679.152,72.952 C679.152,66.36 686.064,61.752 700.4,62.968 C700.016,54.456 695.472,52.088 681.136,51.448 L681.52,48.888 C698.288,49.656 703.28,53.24 703.28,64.824 C703.28,71.8 703.408,75.512 703.6,80.056 L701.104,80.248 Z M738.992,78.2 C727.6,78.008 724.528,76.28 724.528,70.328 L724.528,51.704 L738.288,51.704 L738.288,49.4 L724.528,49.4 L724.528,40.312 L721.712,40.568 L721.712,49.4 L715.632,49.4 L715.248,51.704 L721.712,51.704 L721.712,70.776 C721.712,77.944 726.128,80.696 738.736,80.696 L738.992,78.2 Z M773.232,80.824 C754.8,80.312 749.552,75 749.552,65.08 C749.552,55.864 755.696,48.696 763.504,48.696 C771.632,48.696 775.984,55.48 774.832,64.888 L752.304,65.528 C752.56,73.976 757.232,77.752 773.616,78.264 L773.232,80.824 Z M762.992,51.128 C756.848,51.128 752.688,55.864 752.304,63.48 L772.272,62.904 C772.528,55.928 769.328,51.128 762.992,51.128 Z M807.408,49.272 C792.176,47.928 787.44,52.92 787.44,57.208 C787.44,64.888 805.68,65.528 805.68,72.312 C805.68,75.512 801.776,78.904 786.864,77.56 L786.736,80.248 C803.312,81.464 808.496,76.408 808.496,71.864 C808.496,63.864 790.256,62.968 790.256,56.632 C790.256,53.816 793.392,50.616 807.536,51.96 L807.408,49.272 Z" id=".templates" fill="#212121"></path>
        </g>
    </g>
</svg>