<?xml version="1.0" encoding="UTF-8"?>
<svg width="980px" height="200px" viewBox="0 0 980 200" version="1.1" xmlns="http://www.w3.org/2000/svg" xmlns:xlink="http://www.w3.org/1999/xlink">
    <!-- Generator: Sketch 42 (36781) - http://www.bohemiancoding.com/sketch -->
    <title>gitignore</title>
    <desc>Created with Sketch.</desc>
    <defs></defs>
    <g id="Gitignore" stroke="none" stroke-width="1" fill="none" fill-rule="evenodd">
        <g id="gitignore" fill="#FF5722">
            <path d="M336.707179,113.707029 L340,116.99985 L332.00015,125 L330.000038,122.999887 L330.000038,120.414171 L336.707179,113.707029 Z M327.999925,112.999925 L327.999925,121.000075 L324,116.99985 L327.999925,112.999925 Z M335.292971,112.292821 L330.000038,117.585754 L330.000038,110.999812 L332.00015,109 L335.292971,112.292821 Z" id="vcs"></path>
            <path d="M352.42,127.88 L352.1,125.192 C367.652,124.104 370.148,121.224 370.148,111.688 L370.148,111.56 C367.716,113.416 364.324,115.08 360.292,115.08 C353.444,115.08 348.324,110.152 348.324,101.768 C348.324,91.656 356.004,85.64 364.388,85.64 C367.268,85.64 369.956,86.152 372.9,87.048 C372.964,88.2 372.964,109.64 372.964,111.368 C372.964,121.224 368.676,127.048 352.42,127.88 Z M361.188,112.648 C364.452,112.648 367.716,111.176 370.148,109.384 L370.148,89.224 C367.844,88.52 365.732,88.072 363.428,88.072 C356.708,88.072 351.14,92.744 351.14,101.064 C351.14,108.68 355.364,112.648 361.188,112.648 Z M399.14,80.84 L399.652,72.52 L396.644,72.52 L396.388,80.84 L399.14,80.84 Z M411.876,117 L412.068,114.76 L399.524,114.76 L399.524,86.28 L384.612,86.28 L384.356,88.2 L396.708,88.712 L396.708,114.76 L384.164,114.76 L384.164,117 L411.876,117 Z M444.004,115.08 C432.612,114.888 429.54,113.16 429.54,107.208 L429.54,88.584 L443.3,88.584 L443.3,86.28 L429.54,86.28 L429.54,77.192 L426.724,77.448 L426.724,86.28 L420.644,86.28 L420.26,88.584 L426.724,88.584 L426.724,107.656 C426.724,114.824 431.14,117.576 443.748,117.576 L444.004,115.08 Z M469.54,80.84 L470.052,72.52 L467.044,72.52 L466.788,80.84 L469.54,80.84 Z M482.276,117 L482.468,114.76 L469.924,114.76 L469.924,86.28 L455.012,86.28 L454.756,88.2 L467.108,88.712 L467.108,114.76 L454.564,114.76 L454.564,117 L482.276,117 Z M493.22,127.88 L492.9,125.192 C508.452,124.104 510.948,121.224 510.948,111.688 L510.948,111.56 C508.516,113.416 505.124,115.08 501.092,115.08 C494.244,115.08 489.124,110.152 489.124,101.768 C489.124,91.656 496.804,85.64 505.188,85.64 C508.068,85.64 510.756,86.152 513.7,87.048 C513.764,88.2 513.764,109.64 513.764,111.368 C513.764,121.224 509.476,127.048 493.22,127.88 Z M501.988,112.648 C505.252,112.648 508.516,111.176 510.948,109.384 L510.948,89.224 C508.644,88.52 506.532,88.072 504.228,88.072 C497.508,88.072 491.94,92.744 491.94,101.064 C491.94,108.68 496.164,112.648 501.988,112.648 Z M539.108,88.072 C543.844,88.072 546.66,90.568 546.66,97.096 L546.66,117 L549.476,117 L549.476,96.328 C549.476,88.776 545.636,85.64 539.876,85.64 C535.332,85.64 531.812,87.56 529.06,89.672 L528.804,86.216 L526.244,86.408 C526.5,93.64 526.628,104.072 526.628,117 L529.444,117 C529.444,105.032 529.316,96.904 529.124,91.592 C532.132,89.48 535.332,88.072 539.108,88.072 Z M572.516,117.832 C565.028,117.832 559.396,111.816 559.396,102.024 C559.396,92.104 565.796,85.512 573.284,85.512 C580.9,85.512 586.404,91.528 586.404,101.256 C586.404,111.24 580.068,117.832 572.516,117.832 Z M572.9,115.4 C579.172,115.4 583.652,110.408 583.652,101.832 C583.652,93.064 579.172,87.944 572.9,87.944 C566.692,87.944 562.212,92.936 562.212,101.448 C562.212,110.28 566.692,115.4 572.9,115.4 Z M618.02,117 L618.276,114.76 L606.628,114.76 C606.564,106.76 606.436,99.528 606.308,93.384 C609.636,90.696 614.564,88.84 621.796,88.2 L621.604,85.256 C614.628,86.024 609.508,88.392 606.308,91.336 C606.244,89.8 606.116,87.368 606.052,86.28 L595.236,86.28 L595.044,88.264 L603.428,88.712 C603.62,95.688 603.684,104.008 603.876,114.76 L594.852,114.76 L594.852,117 L618.02,117 Z M654.244,117.704 C635.812,117.192 630.564,111.88 630.564,101.96 C630.564,92.744 636.708,85.576 644.516,85.576 C652.644,85.576 656.996,92.36 655.844,101.768 L633.316,102.408 C633.572,110.856 638.244,114.632 654.628,115.144 L654.244,117.704 Z M644.004,88.008 C637.86,88.008 633.7,92.744 633.316,100.36 L653.284,99.784 C653.54,92.808 650.34,88.008 644.004,88.008 Z"></path>
        </g>
    </g>
</svg>