<?xml version="1.0" encoding="UTF-8"?>
<svg width="980px" height="128px" viewBox="0 0 980 128" version="1.1" xmlns="http://www.w3.org/2000/svg" xmlns:xlink="http://www.w3.org/1999/xlink">
    <!-- Generator: Sketch 42 (36781) - http://www.bohemiancoding.com/sketch -->
    <title>ignore-engine-kit</title>
    <desc>Created with Sketch.</desc>
    <defs>
        <linearGradient x1="50%" y1="0%" x2="50%" y2="100%" id="linearGradient-1">
            <stop stop-color="#F44336" offset="0%"></stop>
            <stop stop-color="#E91E63" offset="100%"></stop>
        </linearGradient>
    </defs>
    <g id="ignore-engine-kit" stroke="none" stroke-width="1" fill="none" fill-rule="evenodd">
        <g id="IgnoreEngineKit" fill="url(#linearGradient-1)">
            <path d="M246.104,45.664 L255.96,45.664 L255.96,41.44 L231,41.44 L231,45.664 L240.792,45.664 L240.792,76.896 L231,76.896 L231,81.12 L255.832,81.12 L256.216,76.896 L246.104,76.896 L246.104,45.664 Z M269.144,92.192 L268.632,87.456 C283.48,86.304 285.464,84.512 285.592,75.616 C283.352,77.344 280.344,78.688 276.632,78.688 C269.848,78.688 264.792,73.696 264.792,65.44 C264.792,55.328 272.536,49.056 281.496,49.056 C284.568,49.056 287.512,49.568 290.648,50.528 C290.712,53.024 290.712,70.176 290.712,73.824 C290.712,84.64 286.424,91.296 269.144,92.192 Z M278.552,74.528 C281.048,74.528 283.544,73.632 285.592,72.352 C285.592,68.064 285.528,59.296 285.592,54.432 C283.544,53.856 281.624,53.472 279.64,53.472 C274.136,53.472 269.912,57.248 269.912,64.224 C269.912,71.136 273.624,74.528 278.552,74.528 Z M314.904,53.472 C318.872,53.472 321.24,55.584 321.24,61.6 L321.24,81.12 L326.424,81.12 L326.424,59.872 C326.424,52.192 322.712,49.056 317.08,49.056 C312.6,49.056 309.208,51.04 306.584,53.216 L306.264,49.632 L301.464,49.952 C301.784,57.184 301.912,67.424 301.912,81.12 L307.096,81.12 C307.096,70.176 306.968,61.92 306.84,56.224 C309.272,54.56 311.896,53.472 314.904,53.472 Z M348.376,82.016 C340.632,82.016 335,76.128 335,66.016 C335,55.84 341.784,48.928 349.848,48.928 C357.656,48.928 363.16,54.816 363.16,64.864 C363.16,75.232 356.44,82.016 348.376,82.016 Z M349.208,77.728 C354.392,77.728 357.976,73.568 357.976,65.824 C357.976,57.696 354.328,53.152 348.952,53.152 C343.832,53.152 340.248,57.376 340.248,65.056 C340.248,73.248 343.896,77.728 349.208,77.728 Z M394.52,81.12 L394.968,77.152 L384.344,77.152 C384.28,69.856 384.152,63.712 384.088,58.272 C387.544,56.032 392.088,54.624 398.488,54.112 L398.232,48.608 C391.768,49.376 386.968,51.936 383.896,55.136 C383.832,53.664 383.576,50.4 383.512,49.76 L371.352,49.76 L370.968,53.472 L378.904,53.92 C379.096,60.192 379.16,67.552 379.288,77.152 L370.968,77.152 L370.968,81.12 L394.52,81.12 Z M431.064,81.824 C411.416,81.76 406.104,76.064 406.104,65.888 C406.104,56.352 412.76,48.992 420.888,48.992 C429.464,48.992 433.816,55.904 432.664,66.272 L411.224,66.784 C411.736,74.208 416.408,77.024 431.576,77.408 L431.064,81.824 Z M419.992,53.28 C414.808,53.28 411.608,56.864 411.224,63.584 C414.808,63.456 423.384,63.2 427.8,63.072 C427.736,57.056 425.24,53.28 419.992,53.28 Z M468.184,76.576 L449.112,76.576 L449.112,63.072 L465.304,63.072 L465.304,59.04 L449.112,59.04 L449.112,45.984 L467.864,45.984 L467.864,41.44 L443.8,41.44 L443.8,81.12 L467.672,81.12 L468.184,76.576 Z M490.904,53.472 C494.872,53.472 497.24,55.584 497.24,61.6 L497.24,81.12 L502.424,81.12 L502.424,59.872 C502.424,52.192 498.712,49.056 493.08,49.056 C488.6,49.056 485.208,51.04 482.584,53.216 L482.264,49.632 L477.464,49.952 C477.784,57.184 477.912,67.424 477.912,81.12 L483.096,81.12 C483.096,70.176 482.968,61.92 482.84,56.224 C485.272,54.56 487.896,53.472 490.904,53.472 Z M515.544,92.192 L515.032,87.456 C529.88,86.304 531.864,84.512 531.992,75.616 C529.752,77.344 526.744,78.688 523.032,78.688 C516.248,78.688 511.192,73.696 511.192,65.44 C511.192,55.328 518.936,49.056 527.896,49.056 C530.968,49.056 533.912,49.568 537.048,50.528 C537.112,53.024 537.112,70.176 537.112,73.824 C537.112,84.64 532.824,91.296 515.544,92.192 Z M524.952,74.528 C527.448,74.528 529.944,73.632 531.992,72.352 C531.992,68.064 531.928,59.296 531.992,54.432 C529.944,53.856 528.024,53.472 526.04,53.472 C520.536,53.472 516.312,57.248 516.312,64.224 C516.312,71.136 520.024,74.528 524.952,74.528 Z M563.928,44.704 L564.504,36 L559,36 L558.616,44.704 L563.928,44.704 Z M575.576,81.12 L575.96,77.152 L564.184,77.152 L564.184,49.76 L547.672,49.76 L547.288,53.408 L559,53.92 L559,77.152 L547.224,77.152 L547.224,81.12 L575.576,81.12 Z M596.504,53.472 C600.472,53.472 602.84,55.584 602.84,61.6 L602.84,81.12 L608.024,81.12 L608.024,59.872 C608.024,52.192 604.312,49.056 598.68,49.056 C594.2,49.056 590.808,51.04 588.184,53.216 L587.864,49.632 L583.064,49.952 C583.384,57.184 583.512,67.424 583.512,81.12 L588.696,81.12 C588.696,70.176 588.568,61.92 588.44,56.224 C590.872,54.56 593.496,53.472 596.504,53.472 Z M642.264,81.824 C622.616,81.76 617.304,76.064 617.304,65.888 C617.304,56.352 623.96,48.992 632.088,48.992 C640.664,48.992 645.016,55.904 643.864,66.272 L622.424,66.784 C622.936,74.208 627.608,77.024 642.776,77.408 L642.264,81.824 Z M631.192,53.28 C626.008,53.28 622.808,56.864 622.424,63.584 C626.008,63.456 634.584,63.2 639,63.072 C638.936,57.056 636.44,53.28 631.192,53.28 Z M675.672,81.504 L681.496,80.8 L667.928,60.832 L680.536,41.44 L674.84,41.44 L663.768,58.912 L659.416,58.912 L659.416,41.44 L654.104,41.44 L654.104,81.12 L659.416,81.12 L659.416,63.264 L663.512,63.264 L675.672,81.504 Z M704.728,44.704 L705.304,36 L699.8,36 L699.416,44.704 L704.728,44.704 Z M716.376,81.12 L716.76,77.152 L704.984,77.152 L704.984,49.76 L688.472,49.76 L688.088,53.408 L699.8,53.92 L699.8,77.152 L688.024,77.152 L688.024,81.12 L716.376,81.12 Z M748.12,81.632 L748.696,77.28 C738.2,77.088 735.192,75.68 735.192,70.24 L735.192,53.792 L747.992,53.792 L747.992,49.76 L735.192,49.76 L735.192,40.608 L730.008,41.056 L730.008,49.76 L724.056,49.76 L723.544,53.792 L730.008,53.792 L730.008,71.072 C730.008,78.816 734.552,81.824 748.12,81.632 Z"></path>
        </g>
    </g>
</svg>