<?xml version="1.0" encoding="UTF-8"?>
<svg width="980px" height="128px" viewBox="0 0 980 128" version="1.1" xmlns="http://www.w3.org/2000/svg" xmlns:xlink="http://www.w3.org/1999/xlink">
    <!-- Generator: Sketch 42 (36781) - http://www.bohemiancoding.com/sketch -->
    <title>ignore-templates</title>
    <desc>Created with Sketch.</desc>
    <defs></defs>
    <g id="ignore-templates" stroke="none" stroke-width="1" fill="none" fill-rule="evenodd">
        <g>
            <path d="M229.704,44.704 L230.28,36 L224.776,36 L224.392,44.704 L229.704,44.704 Z M241.352,81.12 L241.736,77.152 L229.96,77.152 L229.96,49.76 L213.448,49.76 L213.064,53.408 L224.776,53.92 L224.776,77.152 L213,77.152 L213,81.12 L241.352,81.12 Z M251.72,92.192 L251.208,87.456 C266.056,86.304 268.04,84.512 268.168,75.616 C265.928,77.344 262.92,78.688 259.208,78.688 C252.424,78.688 247.368,73.696 247.368,65.44 C247.368,55.328 255.112,49.056 264.072,49.056 C267.144,49.056 270.088,49.568 273.224,50.528 C273.288,53.024 273.288,70.176 273.288,73.824 C273.288,84.64 269,91.296 251.72,92.192 Z M261.128,74.528 C263.624,74.528 266.12,73.632 268.168,72.352 C268.168,68.064 268.104,59.296 268.168,54.432 C266.12,53.856 264.2,53.472 262.216,53.472 C256.712,53.472 252.488,57.248 252.488,64.224 C252.488,71.136 256.2,74.528 261.128,74.528 Z M297.48,53.472 C301.448,53.472 303.816,55.584 303.816,61.6 L303.816,81.12 L309,81.12 L309,59.872 C309,52.192 305.288,49.056 299.656,49.056 C295.176,49.056 291.784,51.04 289.16,53.216 L288.84,49.632 L284.04,49.952 C284.36,57.184 284.488,67.424 284.488,81.12 L289.672,81.12 C289.672,70.176 289.544,61.92 289.416,56.224 C291.848,54.56 294.472,53.472 297.48,53.472 Z M330.952,82.016 C323.208,82.016 317.576,76.128 317.576,66.016 C317.576,55.84 324.36,48.928 332.424,48.928 C340.232,48.928 345.736,54.816 345.736,64.864 C345.736,75.232 339.016,82.016 330.952,82.016 Z M331.784,77.728 C336.968,77.728 340.552,73.568 340.552,65.824 C340.552,57.696 336.904,53.152 331.528,53.152 C326.408,53.152 322.824,57.376 322.824,65.056 C322.824,73.248 326.472,77.728 331.784,77.728 Z M377.096,81.12 L377.544,77.152 L366.92,77.152 C366.856,69.856 366.728,63.712 366.664,58.272 C370.12,56.032 374.664,54.624 381.064,54.112 L380.808,48.608 C374.344,49.376 369.544,51.936 366.472,55.136 C366.408,53.664 366.152,50.4 366.088,49.76 L353.928,49.76 L353.544,53.472 L361.48,53.92 C361.672,60.192 361.736,67.552 361.864,77.152 L353.544,77.152 L353.544,81.12 L377.096,81.12 Z M413.64,81.824 C393.992,81.76 388.68,76.064 388.68,65.888 C388.68,56.352 395.336,48.992 403.464,48.992 C412.04,48.992 416.392,55.904 415.24,66.272 L393.8,66.784 C394.312,74.208 398.984,77.024 414.152,77.408 L413.64,81.824 Z M402.568,53.28 C397.384,53.28 394.184,56.864 393.8,63.584 C397.384,63.456 405.96,63.2 410.376,63.072 C410.312,57.056 407.816,53.28 402.568,53.28 Z" id="ignore" fill="#FF5722"></path>
            <path d="M484.576,81.184 L485.152,76.832 C474.656,76.64 471.648,75.232 471.648,69.792 L471.648,53.344 L484.448,53.344 L484.448,49.312 L471.648,49.312 L471.648,40.16 L466.464,40.608 L466.464,49.312 L460.512,49.312 L460,53.344 L466.464,53.344 L466.464,70.624 C466.464,78.368 471.008,81.376 484.576,81.184 Z M519.52,81.376 C499.872,81.312 494.56,75.616 494.56,65.44 C494.56,55.904 501.216,48.544 509.344,48.544 C517.92,48.544 522.272,55.456 521.12,65.824 L499.68,66.336 C500.192,73.76 504.864,76.576 520.032,76.96 L519.52,81.376 Z M508.448,52.832 C503.264,52.832 500.064,56.416 499.68,63.136 C503.264,63.008 511.84,62.752 516.256,62.624 C516.192,56.608 513.696,52.832 508.448,52.832 Z M538.464,53.024 C540.576,53.024 541.408,54.24 541.408,57.44 L541.408,80.672 L545.44,80.672 L545.44,54.88 C546.784,53.664 548.192,53.024 549.6,53.024 C551.776,53.024 552.608,54.24 552.608,57.504 L552.608,80.672 L557.536,80.672 L557.536,55.648 C557.536,50.912 555.552,48.608 552.032,48.608 C549.28,48.608 546.912,50.144 545.184,51.936 C544.416,49.824 542.752,48.608 540.384,48.608 C537.76,48.608 535.392,50.144 533.6,52.128 L533.344,49.184 L528.8,49.504 C529.056,56.736 529.184,66.976 529.184,80.672 L534.048,80.672 C534.048,69.664 533.92,61.088 533.792,55.392 C535.328,53.856 537.056,53.024 538.464,53.024 Z M577.056,76.96 C582.752,76.96 587.232,72.736 587.232,64.864 C587.232,57.056 583.584,52.896 578.656,52.896 C576.16,52.896 573.6,53.92 571.488,55.52 C571.616,60.704 571.744,66.784 571.808,76 C573.664,76.64 575.328,76.96 577.056,76.96 Z M571.808,91.232 L566.624,91.68 L566.624,80.8 C566.624,65.632 566.56,56.16 566.24,49.504 L570.976,49.184 L571.296,52.448 C573.664,50.336 576.8,48.608 580.704,48.608 C587.36,48.608 592.352,54.432 592.352,63.584 C592.352,74.848 584.48,81.44 575.2,81.44 C574.112,81.44 572.96,81.376 571.808,81.184 L571.808,91.232 Z M626.144,80.672 L626.592,76.704 L616.352,76.704 L616.352,36 L601.888,36 L601.44,39.712 L611.104,40.16 L611.104,76.704 L600.928,76.704 L600.928,80.672 L626.144,80.672 Z M647.008,77.344 C650.144,77.344 653.472,75.872 655.904,73.952 C655.84,71.904 655.776,69.6 655.776,66.528 C644.32,65.312 640.544,67.808 640.544,72.096 C640.544,75.424 643.104,77.344 647.008,77.344 Z M656.608,80.864 C656.544,80.224 656.288,78.24 656.16,76.832 C653.6,79.2 649.952,81.44 645.024,81.44 C639.328,81.44 635.424,78.368 635.424,73.312 C635.424,66.848 641.824,61.984 655.712,62.816 C655.264,55.584 651.296,53.728 637.28,53.216 L637.856,48.736 C655.968,49.248 660.832,53.024 660.832,65.12 C660.832,71.648 661.088,76.064 661.344,80.544 L656.608,80.864 Z M695.776,81.184 L696.352,76.832 C685.856,76.64 682.848,75.232 682.848,69.792 L682.848,53.344 L695.648,53.344 L695.648,49.312 L682.848,49.312 L682.848,40.16 L677.664,40.608 L677.664,49.312 L671.712,49.312 L671.2,53.344 L677.664,53.344 L677.664,70.624 C677.664,78.368 682.208,81.376 695.776,81.184 Z M730.72,81.376 C711.072,81.312 705.76,75.616 705.76,65.44 C705.76,55.904 712.416,48.544 720.544,48.544 C729.12,48.544 733.472,55.456 732.32,65.824 L710.88,66.336 C711.392,73.76 716.064,76.576 731.232,76.96 L730.72,81.376 Z M719.648,52.832 C714.464,52.832 711.264,56.416 710.88,63.136 C714.464,63.008 723.04,62.752 727.456,62.624 C727.392,56.608 724.896,52.832 719.648,52.832 Z M764.704,49.056 C748.704,47.84 743.328,52.96 743.328,57.952 C743.328,65.824 760.864,66.72 760.864,72.288 C760.864,75.104 756.96,77.408 743.264,76.32 L743.072,80.928 C760.672,81.888 766.24,76.96 766.24,71.84 C766.24,63.84 748.576,62.432 748.576,57.248 C748.576,54.688 752.032,52.512 764.896,53.664 L764.704,49.056 Z" id="templates" fill="#212121"></path>
        </g>
    </g>
</svg>