<?xml version="1.0" encoding="UTF-8"?>
<svg width="980px" height="128px" viewBox="0 0 980 128" version="1.1" xmlns="http://www.w3.org/2000/svg" xmlns:xlink="http://www.w3.org/1999/xlink">
    <!-- Generator: Sketch 42 (36781) - http://www.bohemiancoding.com/sketch -->
    <title>scripts</title>
    <desc>Created with Sketch.</desc>
    <defs></defs>
    <g id="scripts" stroke="none" stroke-width="1" fill="none" fill-rule="evenodd">
        <g fill="#212121">
            <path d="M394.632,49.504 C378.632,48.288 373.256,53.408 373.256,58.4 C373.256,66.272 390.792,67.168 390.792,72.736 C390.792,75.552 386.888,77.856 373.192,76.768 L373,81.376 C390.6,82.336 396.168,77.408 396.168,72.288 C396.168,64.288 378.504,62.88 378.504,57.696 C378.504,55.136 381.96,52.96 394.824,54.112 L394.632,49.504 Z M406.984,65.952 C406.984,75.552 412.296,82.656 431.304,81.376 L431.88,77.024 C416.52,77.728 412.104,73.504 412.104,65.248 C412.104,58.592 415.24,54.176 431.432,54.24 L431.048,49.312 C412.808,49.696 406.984,57.312 406.984,65.952 Z M464.904,81.12 L465.352,77.152 L454.728,77.152 C454.664,69.856 454.536,63.712 454.472,58.272 C457.928,56.032 462.472,54.624 468.872,54.112 L468.616,48.608 C462.152,49.376 457.352,51.936 454.28,55.136 C454.216,53.664 453.96,50.4 453.896,49.76 L441.736,49.76 L441.352,53.472 L449.288,53.92 C449.48,60.192 449.544,67.552 449.672,77.152 L441.352,77.152 L441.352,81.12 L464.904,81.12 Z M493.512,44.704 L494.088,36 L488.584,36 L488.2,44.704 L493.512,44.704 Z M505.16,81.12 L505.544,77.152 L493.768,77.152 L493.768,49.76 L477.256,49.76 L476.872,53.408 L488.584,53.92 L488.584,77.152 L476.808,77.152 L476.808,81.12 L505.16,81.12 Z M523.784,77.408 C529.48,77.408 533.96,73.184 533.96,65.312 C533.96,57.504 530.312,53.344 525.384,53.344 C522.888,53.344 520.328,54.368 518.216,55.968 C518.344,61.152 518.472,67.232 518.536,76.448 C520.392,77.088 522.056,77.408 523.784,77.408 Z M518.536,91.68 L513.352,92.128 L513.352,81.248 C513.352,66.08 513.288,56.608 512.968,49.952 L517.704,49.632 L518.024,52.896 C520.392,50.784 523.528,49.056 527.432,49.056 C534.088,49.056 539.08,54.88 539.08,64.032 C539.08,75.296 531.208,81.888 521.928,81.888 C520.84,81.888 519.688,81.824 518.536,81.632 L518.536,91.68 Z M572.104,81.632 L572.68,77.28 C562.184,77.088 559.176,75.68 559.176,70.24 L559.176,53.792 L571.976,53.792 L571.976,49.76 L559.176,49.76 L559.176,40.608 L553.992,41.056 L553.992,49.76 L548.04,49.76 L547.528,53.792 L553.992,53.792 L553.992,71.072 C553.992,78.816 558.536,81.824 572.104,81.632 Z M605.832,49.504 C589.832,48.288 584.456,53.408 584.456,58.4 C584.456,66.272 601.992,67.168 601.992,72.736 C601.992,75.552 598.088,77.856 584.392,76.768 L584.2,81.376 C601.8,82.336 607.368,77.408 607.368,72.288 C607.368,64.288 589.704,62.88 589.704,57.696 C589.704,55.136 593.16,52.96 606.024,54.112 L605.832,49.504 Z"></path>
        </g>
    </g>
</svg>